<svg width="213" height="78" viewBox="0 0 213 78" fill="none" xmlns="http://www.w3.org/2000/svg">
<path d="M40.8035 42.9534C40.8035 40.328 40.3321 38.2332 39.3891 36.6692C38.4461 35.1051 37.0733 34.3231 35.2706 34.3231C34.0225 34.3231 32.8854 34.9096 31.8592 36.0826C30.8608 37.2557 30.3616 38.7639 30.3616 40.6072V44.671C30.3616 47.0451 30.8746 48.7627 31.9008 49.8241C32.927 50.8575 34.0918 51.3741 35.3954 51.3741C36.9207 51.3741 38.1965 50.634 39.2227 49.1538C40.2767 47.6456 40.8035 45.5788 40.8035 42.9534ZM30.32 34.7839C31.7622 32.9126 33.6619 31.977 36.0194 31.977C38.4601 31.977 40.3737 32.9545 41.7604 34.9096C43.1749 36.8367 43.8821 39.4761 43.8821 42.8277C43.8821 45.9558 43.1471 48.5253 41.6772 50.5362C40.2072 52.5193 38.1965 53.5108 35.645 53.5108C33.2321 53.5108 31.4155 52.6728 30.1952 50.9971C29.8901 52.4774 29.1413 53.2175 27.9487 53.2175H27.3662V26.9915C27.3662 26.1536 27.2553 25.5392 27.0335 25.1482C26.8394 24.7571 26.5203 24.4918 26.0766 24.3522C25.6329 24.2125 25.3139 24.0868 25.1198 23.9751C24.9256 23.8635 24.8285 23.6679 24.8285 23.3886C24.8285 22.9138 25.1891 22.6764 25.9102 22.6764H29.1135C29.9178 22.6764 30.32 23.1093 30.32 23.9751V34.7839ZM52.0776 53.2175H48.9991V26.9915C48.9991 26.1536 48.902 25.5392 48.7079 25.1482C48.5138 24.7293 48.1809 24.4639 47.7094 24.3522C47.2657 24.2405 46.9467 24.1148 46.7526 23.9751C46.5862 23.8355 46.5029 23.64 46.5029 23.3886C46.5029 22.9138 46.8496 22.6764 47.5431 22.6764H50.8295C51.6616 22.6764 52.0776 23.1093 52.0776 23.9751V53.2175ZM73.5856 53.2175H70.5903V49.1956C70.2298 50.1731 69.5642 51.0809 68.5935 51.9188C67.3454 52.9801 65.82 53.5108 64.0173 53.5108C62.4641 53.5108 61.1051 52.9103 59.9403 51.7094C58.8032 50.4804 58.2346 48.3438 58.2346 45.2994V36.8786C58.2346 36.0407 58.1237 35.4123 57.9018 34.9934C57.7077 34.5744 57.3887 34.3091 56.945 34.1974C56.5289 34.0856 56.21 33.974 55.9881 33.8623C55.794 33.7505 55.6969 33.5551 55.6969 33.2757C55.6969 32.773 56.0574 32.5216 56.7785 32.5216H60.0235C60.8278 32.5216 61.2299 32.9685 61.2299 33.8623V45.5509C61.2299 47.4221 61.5489 48.7767 62.1868 49.6146C62.8246 50.4525 63.6567 50.8714 64.6829 50.8714C66.4024 50.8714 67.8169 50.0894 68.9262 48.5253C70.0356 46.9892 70.5903 44.6012 70.5903 41.3614V36.8786C70.5903 36.0407 70.4794 35.4123 70.2575 34.9934C70.0634 34.5744 69.7444 34.3091 69.3006 34.1974C68.8569 34.0856 68.538 33.974 68.3438 33.8623C68.1496 33.7226 68.0526 33.5271 68.0526 33.2757C68.0526 32.773 68.4132 32.5216 69.1342 32.5216H72.3791C73.1834 32.5216 73.5856 32.9685 73.5856 33.8623V53.2175ZM81.2819 43.1628C81.3651 45.3972 82.0168 47.2685 83.2372 48.7767C84.4575 50.2849 86.1215 51.1367 88.2293 51.3322C89.0059 51.4161 89.824 51.3881 90.6839 51.2485C91.5436 51.1089 92.3757 50.8295 93.18 50.4106C93.5405 50.243 93.8456 50.2151 94.0952 50.3268C94.3448 50.4385 94.4974 50.5921 94.5528 50.7876C94.636 51.0669 94.6082 51.3463 94.4696 51.6255C94.3309 51.8769 94.1368 52.0724 93.8872 52.2121C93.1383 52.6589 92.2093 53.0081 91.0999 53.2594C90.0183 53.4829 88.8118 53.5527 87.4806 53.4688C84.9012 53.3013 82.6686 52.24 80.7827 50.2849C78.9244 48.3298 77.9954 45.5648 77.9954 41.9898C77.9954 38.8337 78.8274 36.3759 80.4914 34.6163C82.1833 32.8568 84.3604 31.977 87.0229 31.977C89.2417 31.977 91.0999 32.7869 92.5975 34.4069C94.1229 35.9989 94.8856 38.3869 94.8856 41.5708V43.1628H81.2819ZM81.2819 40.9424H91.8487C91.8487 38.5125 91.3772 36.7669 90.4342 35.7056C89.4913 34.6443 88.3403 34.1136 86.9813 34.1136C85.4282 34.1136 84.097 34.7281 82.9875 35.957C81.906 37.1859 81.3373 38.8477 81.2819 40.9424ZM102.623 53.2175H99.6279V26.9915C99.6279 26.1536 99.5175 25.5392 99.2958 25.1482C99.1012 24.7293 98.7826 24.4639 98.3382 24.3522C97.9229 24.2405 97.6034 24.1288 97.3817 24.017C97.188 23.8774 97.0902 23.6679 97.0902 23.3886C97.0902 22.9138 97.4514 22.6764 98.1717 22.6764H101.417C102.222 22.6764 102.623 23.1093 102.623 23.9751V40.7329L110.986 32.5216H114.521L105.577 41.1519L115.478 53.2175H111.817L102.623 42.1574V53.2175ZM121.552 53.2175H118.64V36.8786C118.64 36.0407 118.529 35.4123 118.307 34.9934C118.085 34.5744 117.752 34.3091 117.309 34.1974C116.892 34.0856 116.574 33.974 116.352 33.8623C116.158 33.7505 116.061 33.5551 116.061 33.2757C116.061 32.773 116.421 32.5216 117.142 32.5216H120.346C121.151 32.5216 121.552 32.9685 121.552 33.8623V36.8786C122.107 35.5939 122.994 34.4907 124.215 33.569C125.408 32.6473 126.808 32.1864 128.417 32.1864C129.998 32.1864 131.329 32.8009 132.41 34.0298C133.492 35.2308 134.033 37.3535 134.033 40.3978V53.2175H131.038V40.1884C131.038 38.2891 130.733 36.9345 130.122 36.1246C129.512 35.3146 128.68 34.9096 127.626 34.9096C126.128 34.9096 124.755 35.7475 123.507 37.4233C122.204 39.127 121.552 41.4591 121.552 44.4197V53.2175ZM143.31 53.2175H140.231V36.8786C140.231 36.0407 140.135 35.4123 139.94 34.9934C139.746 34.5744 139.413 34.3091 138.942 34.1974C138.497 34.0856 138.179 33.974 137.985 33.8623C137.819 33.7226 137.735 33.5271 137.735 33.2757C137.735 32.773 138.082 32.5216 138.775 32.5216H142.061C142.894 32.5216 143.31 32.9685 143.31 33.8623V53.2175ZM143.809 25.3576C143.809 26.0559 143.559 26.6563 143.06 27.1591C142.589 27.6339 142.021 27.8713 141.355 27.8713C140.661 27.8713 140.065 27.6339 139.565 27.1591C139.094 26.6563 138.859 26.0559 138.859 25.3576C138.859 24.6873 139.094 24.1148 139.565 23.64C140.065 23.1373 140.661 22.8859 141.355 22.8859C142.021 22.8859 142.589 23.1373 143.06 23.64C143.559 24.1148 143.809 24.6873 143.809 25.3576ZM153.128 25.9023V32.5216H158.702V34.6163H153.169V48.3159C153.169 49.4051 153.406 50.1872 153.877 50.6619C154.376 51.1367 155.152 51.3741 156.206 51.3741C156.733 51.3741 157.218 51.3602 157.663 51.3322C158.134 51.3043 158.606 51.2345 159.077 51.1228V53.2594C158.633 53.399 158.009 53.4968 157.205 53.5527C156.428 53.6086 155.845 53.6364 155.457 53.6364C154.237 53.6364 153.266 53.5108 152.546 53.2594C151.852 53.0081 151.325 52.617 150.965 52.0864C150.576 51.5836 150.34 50.9413 150.257 50.1592C150.174 49.3493 150.132 48.4415 150.132 47.436V34.6163H147.096V32.5216H150.132V28.8349L153.128 25.9023ZM168.229 43.5398C166.232 42.8137 164.665 41.9479 163.528 40.9424C162.391 39.909 161.823 38.722 161.823 37.3813C161.823 35.6776 162.419 34.3231 163.611 33.3176C164.804 32.3121 166.537 31.7815 168.811 31.7257C169.81 31.6977 170.767 31.7815 171.682 31.977C172.625 32.1446 173.499 32.368 174.303 32.6473V35.8313C173.61 35.3006 172.778 34.8398 171.807 34.4487C170.837 34.0578 169.837 33.8762 168.811 33.9041C167.591 33.9321 166.62 34.1974 165.9 34.7001C165.179 35.2029 164.804 35.9291 164.776 36.8786C164.749 37.7444 165.179 38.5265 166.065 39.2248C166.981 39.8951 168.243 40.5235 169.852 41.11C171.904 41.892 173.388 42.7718 174.303 43.7494C175.219 44.7269 175.676 45.844 175.676 47.1009C175.676 49.1397 174.996 50.7178 173.638 51.835C172.306 52.9522 170.447 53.5108 168.063 53.5108C166.898 53.5108 165.789 53.3292 164.734 52.9661C163.681 52.603 162.876 52.2121 162.322 51.7931C161.85 51.43 161.573 51.1228 161.49 50.8714C161.407 50.5921 161.448 50.2988 161.615 49.9916C161.808 49.6285 162.086 49.433 162.446 49.4051C162.808 49.3493 163.14 49.447 163.445 49.6984C163.999 50.1453 164.693 50.5362 165.525 50.8714C166.385 51.1787 167.245 51.3183 168.104 51.2904C169.852 51.2345 171.085 50.8156 171.807 50.0335C172.528 49.2236 172.833 48.26 172.722 47.1428C172.667 46.5563 172.32 45.9697 171.682 45.3833C171.044 44.7967 169.894 44.1823 168.229 43.5398ZM185.785 52.0445C185.785 52.7985 185.521 53.441 184.994 53.9716C184.468 54.5022 183.83 54.7676 183.081 54.7676C182.36 54.7676 181.735 54.5022 181.209 53.9716C180.682 53.441 180.419 52.7985 180.419 52.0445C180.419 51.3183 180.682 50.6899 181.209 50.1592C181.735 49.6285 182.36 49.3632 183.081 49.3632C183.83 49.3632 184.468 49.6285 184.994 50.1592C185.521 50.6899 185.785 51.3183 185.785 52.0445Z" fill="black"/>
<path d="M187.827 59.475H96.8182V60.45H187.827V59.475Z" fill="#3787FF"/>
</svg>
