<svg width="150" height="55" viewBox="0 0 150 55" fill="none" xmlns="http://www.w3.org/2000/svg">
<path d="M28.7349 30.2876C28.7349 28.4364 28.4029 26.9593 27.7388 25.8565C27.0747 24.7536 26.108 24.2021 24.8384 24.2021C23.9595 24.2021 23.1587 24.6157 22.4361 25.4429C21.733 26.27 21.3814 27.3335 21.3814 28.6333V31.4988C21.3814 33.1728 21.7427 34.3839 22.4654 35.1324C23.188 35.861 24.0083 36.2253 24.9263 36.2253C26.0005 36.2253 26.899 35.7035 27.6216 34.6597C28.3638 33.5962 28.7349 32.1388 28.7349 30.2876ZM21.3521 24.5271C22.3677 23.2076 23.7056 22.5479 25.3658 22.5479C27.0846 22.5479 28.4322 23.2372 29.4087 24.6157C30.4049 25.9746 30.9029 27.8357 30.9029 30.199C30.9029 32.4047 30.3853 34.2165 29.3502 35.6345C28.315 37.0328 26.899 37.7319 25.1021 37.7319C23.4029 37.7319 22.1236 37.1411 21.2642 35.9595C21.0494 37.0033 20.5221 37.5251 19.6822 37.5251H19.272V19.0325C19.272 18.4416 19.1939 18.0084 19.0377 17.7327C18.901 17.4569 18.6763 17.2699 18.3638 17.1714C18.0513 17.0729 17.8267 16.9843 17.69 16.9055C17.5533 16.8268 17.4849 16.6889 17.4849 16.492C17.4849 16.1572 17.7388 15.9897 18.2466 15.9897H20.5025C21.0689 15.9897 21.3521 16.295 21.3521 16.9055V24.5271ZM36.6744 37.5251H34.5064V19.0325C34.5064 18.4416 34.438 18.0084 34.3013 17.7327C34.1646 17.4373 33.9302 17.2501 33.5982 17.1714C33.2857 17.0926 33.0611 17.004 32.9244 16.9055C32.8072 16.807 32.7486 16.6692 32.7486 16.492C32.7486 16.1572 32.9927 15.9897 33.481 15.9897H35.7955C36.3814 15.9897 36.6744 16.295 36.6744 16.9055V37.5251ZM51.8208 37.5251H49.7115V34.6892C49.4576 35.3785 48.9888 36.0185 48.3053 36.6094C47.4263 37.3577 46.3521 37.7319 45.0826 37.7319C43.9888 37.7319 43.0318 37.3085 42.2115 36.4617C41.4107 35.5951 41.0103 34.0885 41.0103 31.9419V26.0041C41.0103 25.4133 40.9322 24.9702 40.7759 24.6748C40.6392 24.3794 40.4146 24.1923 40.1021 24.1135C39.8091 24.0347 39.5845 23.956 39.4283 23.8772C39.2916 23.7984 39.2232 23.6606 39.2232 23.4636C39.2232 23.1092 39.4771 22.9319 39.9849 22.9319H42.2701C42.8365 22.9319 43.1197 23.247 43.1197 23.8772V32.1192C43.1197 33.4386 43.3443 34.3938 43.7935 34.9846C44.2427 35.5755 44.8287 35.8709 45.5513 35.8709C46.7622 35.8709 47.7584 35.3194 48.5396 34.2165C49.3208 33.1334 49.7115 31.4496 49.7115 29.1651V26.0041C49.7115 25.4133 49.6334 24.9702 49.4771 24.6748C49.3404 24.3794 49.1158 24.1923 48.8033 24.1135C48.4908 24.0347 48.2662 23.956 48.1294 23.8772C47.9927 23.7787 47.9244 23.6409 47.9244 23.4636C47.9244 23.1092 48.1783 22.9319 48.6861 22.9319H50.9712C51.5376 22.9319 51.8208 23.247 51.8208 23.8772V37.5251ZM57.2408 30.4353C57.2994 32.0108 57.7583 33.3304 58.6178 34.3938C59.4771 35.4573 60.649 36.0579 62.1333 36.1958C62.6802 36.2549 63.2564 36.2352 63.8619 36.1367C64.4674 36.0383 65.0533 35.8413 65.6197 35.5459C65.8736 35.4277 66.0884 35.408 66.2642 35.4868C66.44 35.5656 66.5474 35.6739 66.5865 35.8117C66.6451 36.0087 66.6255 36.2057 66.5279 36.4026C66.4302 36.5798 66.2935 36.7177 66.1178 36.8162C65.5904 37.1313 64.9361 37.3775 64.1549 37.5547C63.3931 37.7123 62.5435 37.7615 61.606 37.7024C59.7896 37.5843 58.2173 36.8358 56.8892 35.4573C55.5806 34.0787 54.9263 32.129 54.9263 29.6082C54.9263 27.3827 55.5123 25.6497 56.6841 24.4089C57.8755 23.1682 59.4087 22.5479 61.2837 22.5479C62.8463 22.5479 64.1549 23.119 65.2095 24.2613C66.2837 25.3838 66.8208 27.0676 66.8208 29.3127V30.4353H57.2408ZM57.2408 28.8696H64.6822C64.6822 27.1563 64.3501 25.9254 63.6861 25.177C63.022 24.4287 62.2115 24.0545 61.2544 24.0545C60.1607 24.0545 59.2232 24.4877 58.4419 25.3543C57.6803 26.2208 57.2798 27.3926 57.2408 28.8696ZM72.27 37.5251H70.1605V19.0325C70.1605 18.4416 70.0827 18.0084 69.9266 17.7327C69.7896 17.4373 69.5652 17.2501 69.2523 17.1714C68.9598 17.0926 68.7348 17.0138 68.5786 16.9351C68.4423 16.8366 68.3734 16.6889 68.3734 16.492C68.3734 16.1572 68.6277 15.9897 69.135 15.9897H71.4205C71.9871 15.9897 72.27 16.295 72.27 16.9055V28.7219L78.1589 22.9319H80.6489L74.3502 29.0173L81.3225 37.5251H78.7445L72.27 29.7263V37.5251ZM85.6002 37.5251H83.5493V26.0041C83.5493 25.4133 83.4709 24.9702 83.3148 24.6748C83.1586 24.3794 82.9241 24.1923 82.6118 24.1135C82.3186 24.0347 82.0943 23.956 81.9382 23.8772C81.8011 23.7984 81.733 23.6606 81.733 23.4636C81.733 23.1092 81.9866 22.9319 82.4946 22.9319H84.7507C85.3173 22.9319 85.6002 23.247 85.6002 23.8772V26.0041C85.9909 25.0982 86.6155 24.3203 87.4752 23.6704C88.3152 23.0205 89.3011 22.6956 90.4343 22.6956C91.5477 22.6956 92.4852 23.1288 93.2468 23.9953C94.0084 24.8422 94.3896 26.339 94.3896 28.4856V37.5251H92.28V28.3379C92.28 26.9987 92.0652 26.0435 91.635 25.4724C91.2055 24.9013 90.6198 24.6157 89.8773 24.6157C88.8225 24.6157 87.8557 25.2066 86.9768 26.3882C86.0591 27.5895 85.6002 29.234 85.6002 31.3215V37.5251ZM100.923 37.5251H98.7545V26.0041C98.7545 25.4133 98.6864 24.9702 98.5493 24.6748C98.413 24.3794 98.1784 24.1923 97.8464 24.1135C97.5334 24.0347 97.3091 23.956 97.1727 23.8772C97.0555 23.7787 96.9968 23.6409 96.9968 23.4636C96.9968 23.1092 97.2409 22.9319 97.7291 22.9319H100.043C100.63 22.9319 100.923 23.247 100.923 23.8772V37.5251ZM101.274 17.8804C101.274 18.3728 101.098 18.7961 100.747 19.1507C100.415 19.4854 100.015 19.6528 99.5455 19.6528C99.0573 19.6528 98.6373 19.4854 98.2855 19.1507C97.9534 18.7961 97.7877 18.3728 97.7877 17.8804C97.7877 17.4077 97.9534 17.004 98.2855 16.6692C98.6373 16.3147 99.0573 16.1375 99.5455 16.1375C100.015 16.1375 100.415 16.3147 100.747 16.6692C101.098 17.004 101.274 17.4077 101.274 17.8804ZM107.836 18.2644V22.9319H111.762V24.4089H107.866V34.0689C107.866 34.8369 108.032 35.3884 108.364 35.7231C108.715 36.0579 109.262 36.2253 110.005 36.2253C110.375 36.2253 110.717 36.2155 111.03 36.1958C111.362 36.1761 111.694 36.1269 112.026 36.0481V37.5547C111.713 37.6531 111.274 37.7221 110.708 37.7615C110.161 37.8009 109.75 37.8206 109.477 37.8206C108.618 37.8206 107.934 37.7319 107.427 37.5547C106.938 37.3775 106.567 37.1017 106.313 36.7276C106.04 36.373 105.873 35.9201 105.815 35.3687C105.756 34.7975 105.727 34.1575 105.727 33.4485V24.4089H103.589V22.9319H105.727V20.3323L107.836 18.2644ZM118.471 30.7011C117.065 30.1892 115.962 29.5786 115.16 28.8696C114.36 28.141 113.96 27.3039 113.96 26.3586C113.96 25.1573 114.38 24.2021 115.219 23.4932C116.059 22.7842 117.28 22.41 118.881 22.3706C119.585 22.3509 120.258 22.41 120.903 22.5479C121.567 22.6661 122.183 22.8236 122.748 23.0205V25.2656C122.26 24.8914 121.675 24.5665 120.991 24.2908C120.308 24.0151 119.604 23.8871 118.881 23.9067C118.022 23.9265 117.338 24.1135 116.831 24.468C116.323 24.8225 116.059 25.3346 116.039 26.0041C116.02 26.6146 116.323 27.1661 116.948 27.6585C117.593 28.1311 118.481 28.5742 119.614 28.9878C121.059 29.5392 122.104 30.1596 122.748 30.8489C123.393 31.5382 123.715 32.3259 123.715 33.2122C123.715 34.6498 123.237 35.7625 122.28 36.5503C121.343 37.3381 120.033 37.7319 118.354 37.7319C117.534 37.7319 116.753 37.6039 116.01 37.3479C115.268 37.0919 114.702 36.8162 114.311 36.5208C113.979 36.2647 113.784 36.0481 113.725 35.8709C113.667 35.6739 113.696 35.4671 113.813 35.2505C113.95 34.9944 114.145 34.8566 114.399 34.8369C114.653 34.7975 114.887 34.8664 115.102 35.0437C115.493 35.3588 115.981 35.6345 116.567 35.8709C117.173 36.0875 117.778 36.186 118.383 36.1663C119.614 36.1269 120.483 35.8315 120.991 35.28C121.499 34.7089 121.713 34.0295 121.635 33.2417C121.596 32.8281 121.352 32.4145 120.903 32.001C120.453 31.5874 119.643 31.1541 118.471 30.7011ZM130.835 36.698C130.835 37.2297 130.649 37.6827 130.278 38.0569C129.907 38.4311 129.458 38.6182 128.93 38.6182C128.423 38.6182 127.983 38.4311 127.612 38.0569C127.241 37.6827 127.055 37.2297 127.055 36.698C127.055 36.186 127.241 35.7429 127.612 35.3687C127.983 34.9944 128.423 34.8074 128.93 34.8074C129.458 34.8074 129.907 34.9944 130.278 35.3687C130.649 35.7429 130.835 36.186 130.835 36.698Z" fill="black"/>
<path d="M132.273 41.9375H68.1818V42.625H132.273V41.9375Z" fill="#3787FF"/>
</svg>
